<svg xmlns="http://www.w3.org/2000/svg" width="172" height="76" viewBox="0 0 172 76" fill="none">
  <g transform="translate(0, 0)">
    <path d="M25.46 51.64C25.46 51.64 15.3 41.15 13.33 39.09C13.33 39.09 9.4 43.21 9.4 51.58C9.4 59.06 16.38 65.16 24.98 65.16C27.67 65.16 30.22 64.49 32.46 63.3C28.04 61.18 25.46 56.71 25.46 51.64Z" fill="#FFFFFF"/>
    <path d="M75.24 51.58C75.24 43.61 71.48 39.86 71.48 39.86C70.3 41.09 59.88 51.64 59.88 51.64C59.88 56.71 57.3 61.18 52.88 63.3C55.12 64.49 57.67 65.16 60.36 65.16C68.9 65.16 75.24 59.06 75.24 51.58Z" fill="#FFFFFF"/>
    <path d="M42.29 10.01C42.29 10.01 42.29 22.6 42.29 27.67C42.29 32.74 46.99 36.77 51.37 39.74C53.98 41.57 55.92 42.5 55.92 42.5L58.13 44.21C58.13 44.21 58.2 44.09 58.26 44.02C58.38 43.9 58.51 43.77 58.57 43.65C58.63 43.52 58.69 43.4 58.76 43.27C58.82 43.15 58.69 43.4 58.76 43.27C59.94 41.33 76.67 20.1 76.67 20.1L42.29 10.01Z" fill="#FFFFFF"/>
    <path d="M8.42 20.1C8.42 20.1 25.21 41.46 26.45 43.4C26.45 43.4 26.32 43.15 26.39 43.27C26.45 43.4 26.51 43.52 26.57 43.65C26.63 43.77 26.76 43.9 26.88 44.02C26.94 44.09 27.01 44.21 27.01 44.21L29.22 42.5C29.22 42.5 31.16 41.57 33.77 39.74C38.15 36.77 42.85 32.74 42.85 27.67C42.85 22.6 42.85 10.01 42.85 10.01L8.42 20.1Z" fill="#FFFFFF"/>
    <path d="M42.57 67.04C47.62 67.04 51.73 62.93 51.73 57.88C51.73 52.82 47.62 48.71 42.57 48.71C37.52 48.71 33.41 52.82 33.41 57.88C33.41 62.93 37.52 67.04 42.57 67.04Z" fill="#FFFFFF"/>
  </g>
  <g transform="translate(90, 30)">
    <path d="M0 0 H10 V2.5 H2.5 V7.5 H9 V10 H2.5 V15 H10 V17.5 H0 Z" fill="#FFFFFF"/>
    <path d="M12.5 0 H25 V2.5 H15 V7.5 H22.5 V10 H15 V17.5 H12.5 Z" fill="#FFFFFF"/>
    <path d="M27.5 0 H40 V2.5 H30 V7.5 H37.5 V10 H30 V15 H40 V17.5 H27.5 Z" fill="#FFFFFF"/>
    <path d="M42.5 0 H55 V2.5 H45 V7.5 H52.5 V10 H45 V15 H55 V17.5 H42.5 Z" fill="#FFFFFF"/>
    <path d="M57.5 0 H60 V17.5 H57.5 Z" fill="#FFFFFF"/>
    <path d="M62.5 0 H75 V2.5 H65 V7.5 H72.5 V10 H65 V15 H75 V17.5 H62.5 Z" fill="#FFFFFF"/>
    <path d="M77.5 0 H80 V17.5 H77.5 Z" fill="#FFFFFF"/>
  </g>
</svg>